<svg version="1.1" xmlns="http://www.w3.org/2000/svg" xmlns:xlink="http://www.w3.org/1999/xlink" width="595" height="516"><defs></defs><g><g transform="translate(-406,-86) scale(1,1)"><rect fill="#C0C0C0" stroke="none" x="423" y="103" width="277" height="340" opacity="0.2"></rect></g><g transform="translate(-406,-86) scale(1,1)"><rect fill="#ffffff" stroke="none" x="416" y="96" width="277" height="340"></rect></g><g transform="translate(-406,-86) scale(1,1)"><path fill="none" stroke="#000000" d="M 416 96 L 693 96 L 693 436 L 416 436 L 416 96 Z Z" stroke-miterlimit="10"></path></g><g transform="translate(-406,-86) scale(1,1)"><path fill="none" stroke="#000000" d="M 416 121 L 693 121" stroke-miterlimit="10"></path></g><g transform="translate(-406,-86) scale(1,1)"><path fill="none" stroke="#000000" d="M 416 174 L 693 174" stroke-miterlimit="10"></path></g><g transform="translate(-406,-86) scale(1,1)"><g><path fill="none" stroke="none"></path><text fill="#000000" stroke="none" font-family="Arial" font-size="13px" font-style="normal" font-weight="bold" text-decoration="none" x="529" y="115.5">NetWork</text></g></g><g transform="translate(-406,-86) scale(1,1)"><g><path fill="none" stroke="none"></path><text fill="#000000" stroke="none" font-family="Arial" font-size="13px" font-style="normal" font-weight="normal" text-decoration="none" x="421" y="138.5">+network_graph: network_graph</text></g></g><g transform="translate(-406,-86) scale(1,1)"><g><path fill="none" stroke="none"></path><text fill="#000000" stroke="none" font-family="Arial" font-size="13px" font-style="normal" font-weight="normal" text-decoration="none" x="421" y="153.5">+vertex_list_t: vertex_list</text></g></g><g transform="translate(-406,-86) scale(1,1)"><g><path fill="none" stroke="none"></path><text fill="#000000" stroke="none" font-family="Arial" font-size="13px" font-style="normal" font-weight="normal" text-decoration="none" x="421" y="168.5">+edge_list_t: edge_list</text></g></g><g transform="translate(-406,-86) scale(1,1)"><g><path fill="none" stroke="none"></path><text fill="#000000" stroke="none" font-family="Arial" font-size="13px" font-style="normal" font-weight="normal" text-decoration="none" x="421" y="191.5">+Network()</text></g></g><g transform="translate(-406,-86) scale(1,1)"><g><path fill="none" stroke="none"></path><text fill="#000000" stroke="none" font-family="Arial" font-size="13px" font-style="normal" font-weight="normal" text-decoration="none" x="421" y="206.5">~Network()</text></g></g><g transform="translate(-406,-86) scale(1,1)"><g><path fill="none" stroke="none"></path><text fill="#000000" stroke="none" font-family="Arial" font-size="13px" font-style="normal" font-weight="normal" text-decoration="none" x="421" y="221.5">+Network(int)</text></g></g><g transform="translate(-406,-86) scale(1,1)"><g><path fill="none" stroke="none"></path><text fill="#000000" stroke="none" font-family="Arial" font-size="13px" font-style="normal" font-weight="normal" text-decoration="none" x="421" y="236.5">+int addRouteur(Routeur)</text></g></g><g transform="translate(-406,-86) scale(1,1)"><g><path fill="none" stroke="none"></path><text fill="#000000" stroke="none" font-family="Arial" font-size="13px" font-style="normal" font-weight="normal" text-decoration="none" x="421" y="251.5">+int addCable(Cable)</text></g></g><g transform="translate(-406,-86) scale(1,1)"><g><path fill="none" stroke="none"></path><text fill="#000000" stroke="none" font-family="Arial" font-size="13px" font-style="normal" font-weight="normal" text-decoration="none" x="421" y="266.5">+int getRouteur(string)</text></g></g><g transform="translate(-406,-86) scale(1,1)"><g><path fill="none" stroke="none"></path><text fill="#000000" stroke="none" font-family="Arial" font-size="13px" font-style="normal" font-weight="normal" text-decoration="none" x="421" y="281.5">+int getCable(string)</text></g></g><g transform="translate(-406,-86) scale(1,1)"><g><path fill="none" stroke="none"></path><text fill="#000000" stroke="none" font-family="Arial" font-size="13px" font-style="normal" font-weight="normal" text-decoration="none" x="421" y="296.5">+int removeRouteur(string)</text></g></g><g transform="translate(-406,-86) scale(1,1)"><g><path fill="none" stroke="none"></path><text fill="#000000" stroke="none" font-family="Arial" font-size="13px" font-style="normal" font-weight="normal" text-decoration="none" x="421" y="311.5">+int removeRouteur(Routeur)</text></g></g><g transform="translate(-406,-86) scale(1,1)"><g><path fill="none" stroke="none"></path><text fill="#000000" stroke="none" font-family="Arial" font-size="13px" font-style="normal" font-weight="normal" text-decoration="none" x="421" y="326.5">+int removeCable(string)</text></g></g><g transform="translate(-406,-86) scale(1,1)"><g><path fill="none" stroke="none"></path><text fill="#000000" stroke="none" font-family="Arial" font-size="13px" font-style="normal" font-weight="normal" text-decoration="none" x="421" y="341.5">+int removeCable(Cable)</text></g></g><g transform="translate(-406,-86) scale(1,1)"><g><path fill="none" stroke="none"></path><text fill="#000000" stroke="none" font-family="Arial" font-size="13px" font-style="normal" font-weight="normal" text-decoration="none" x="421" y="356.5">+int saveToFile(string)</text></g></g><g transform="translate(-406,-86) scale(1,1)"><g><path fill="none" stroke="none"></path><text fill="#000000" stroke="none" font-family="Arial" font-size="13px" font-style="normal" font-weight="normal" text-decoration="none" x="421" y="371.5">+int loadFromFile(string)</text></g></g><g transform="translate(-406,-86) scale(1,1)"><g><path fill="none" stroke="none"></path><text fill="#000000" stroke="none" font-family="Arial" font-size="13px" font-style="normal" font-weight="normal" text-decoration="none" x="421" y="386.5">+stringList getPath(Routeur Routeur)</text></g></g><g transform="translate(-406,-86) scale(1,1)"><g><path fill="none" stroke="none"></path><text fill="#000000" stroke="none" font-family="Arial" font-size="13px" font-style="normal" font-weight="normal" text-decoration="none" x="421" y="401.5">+Network partialMinimumTree(Source Targets)</text></g></g><g transform="translate(-406,-86) scale(1,1)"><g><path fill="none" stroke="none"></path><text fill="#000000" stroke="none" font-family="Arial" font-size="13px" font-style="normal" font-weight="normal" text-decoration="none" x="421" y="416.5">+stringListList getCycles()</text></g></g><g transform="translate(-406,-86) scale(1,1)"><g><path fill="none" stroke="none"></path><text fill="#000000" stroke="none" font-family="Arial" font-size="13px" font-style="normal" font-weight="normal" text-decoration="none" x="421" y="431.5">+Network minimumTree()</text></g></g><g transform="translate(-406,-86) scale(1,1)"><rect fill="#C0C0C0" stroke="none" x="839" y="207" width="159" height="135" opacity="0.2"></rect></g><g transform="translate(-406,-86) scale(1,1)"><rect fill="#ffffff" stroke="none" x="832" y="200" width="159" height="135"></rect></g><g transform="translate(-406,-86) scale(1,1)"><path fill="none" stroke="#000000" d="M 832 200 L 991 200 L 991 335 L 832 335 L 832 200 Z Z" stroke-miterlimit="10"></path></g><g transform="translate(-406,-86) scale(1,1)"><path fill="none" stroke="#000000" d="M 832 225 L 991 225" stroke-miterlimit="10"></path></g><g transform="translate(-406,-86) scale(1,1)"><path fill="none" stroke="#000000" d="M 832 248 L 991 248" stroke-miterlimit="10"></path></g><g transform="translate(-406,-86) scale(1,1)"><g><path fill="none" stroke="none"></path><text fill="#000000" stroke="none" font-family="Arial" font-size="13px" font-style="normal" font-weight="bold" text-decoration="none" x="889" y="219.5">Routeur</text></g></g><g transform="translate(-406,-86) scale(1,1)"><g><path fill="none" stroke="none"></path><text fill="#000000" stroke="none" font-family="Arial" font-size="13px" font-style="normal" font-weight="normal" text-decoration="none" x="837" y="242.5">+boolean: isMulticast</text></g></g><g transform="translate(-406,-86) scale(1,1)"><rect fill="#C0C0C0" stroke="none" x="487" y="495" width="145" height="104" opacity="0.2"></rect></g><g transform="translate(-406,-86) scale(1,1)"><rect fill="#ffffff" stroke="none" x="480" y="488" width="145" height="104"></rect></g><g transform="translate(-406,-86) scale(1,1)"><path fill="none" stroke="#000000" d="M 480 488 L 625 488 L 625 592 L 480 592 L 480 488 Z Z" stroke-miterlimit="10"></path></g><g transform="translate(-406,-86) scale(1,1)"><path fill="none" stroke="#000000" d="M 480 513 L 625 513" stroke-miterlimit="10"></path></g><g transform="translate(-406,-86) scale(1,1)"><path fill="none" stroke="#000000" d="M 480 566 L 625 566" stroke-miterlimit="10"></path></g><g transform="translate(-406,-86) scale(1,1)"><g><path fill="none" stroke="none"></path><text fill="#000000" stroke="none" font-family="Arial" font-size="13px" font-style="normal" font-weight="bold" text-decoration="none" x="536" y="507.5">Cable</text></g></g><g transform="translate(-406,-86) scale(1,1)"><g><path fill="none" stroke="none"></path><text fill="#000000" stroke="none" font-family="Arial" font-size="13px" font-style="normal" font-weight="normal" text-decoration="none" x="485" y="530.5">+unsigned short: length</text></g></g><g transform="translate(-406,-86) scale(1,1)"><g><path fill="none" stroke="none"></path><text fill="#000000" stroke="none" font-family="Arial" font-size="13px" font-style="normal" font-weight="normal" text-decoration="none" x="485" y="545.5">+Routeur routeur1</text></g></g><g transform="translate(-406,-86) scale(1,1)"><g><path fill="none" stroke="none"></path><text fill="#000000" stroke="none" font-family="Arial" font-size="13px" font-style="normal" font-weight="normal" text-decoration="none" x="485" y="560.5">+Routeur routeur2</text></g></g><g transform="translate(-406,-86) scale(1,1)"><path fill="none" stroke="#000000" d="M 552 487 L 553 437" stroke-miterlimit="10"></path></g><g transform="translate(-406,-86) scale(1,1)"><path fill="#000000" stroke="none" d="M 557.0054632463075 447.244816454309 L 553 437 L 548.5881110364041 447.0764694101109 L 552.5600879736088 458.99560131956014"></path></g><g transform="translate(-406,-86) scale(1,1)"><path fill="none" stroke="#000000" d="M 557.0054632463075 447.244816454309 L 553 437 L 548.5881110364041 447.0764694101109 L 552.5600879736088 458.99560131956014 L 557.0054632463075 447.244816454309" stroke-miterlimit="10"></path></g><g transform="translate(-406,-86) scale(1,1)"><path fill="none" stroke="#000000" d="M 831 267 L 694 266" stroke-miterlimit="10"></path></g><g transform="translate(-406,-86) scale(1,1)"><path fill="#000000" stroke="none" d="M 704.1931297265886 261.86477251206964 L 694 266 L 704.1316785496496 270.2835837527204 L 715.9994139506385 266.16057966387325"></path></g><g transform="translate(-406,-86) scale(1,1)"><path fill="none" stroke="#000000" d="M 704.1931297265886 261.86477251206964 L 694 266 L 704.1316785496496 270.2835837527204 L 715.9994139506385 266.16057966387325 L 704.1931297265886 261.86477251206964" stroke-miterlimit="10"></path></g><g transform="translate(-406,-86) scale(1,1)"><rect fill="#C0C0C0" stroke="none" x="839" y="391" width="159" height="72" opacity="0.2"></rect></g><g transform="translate(-406,-86) scale(1,1)"><rect fill="#ffffff" stroke="none" x="832" y="384" width="159" height="72"></rect></g><g transform="translate(-406,-86) scale(1,1)"><path fill="none" stroke="#000000" d="M 832 384 L 991 384 L 991 456 L 832 456 L 832 384 Z Z" stroke-miterlimit="10"></path></g><g transform="translate(-406,-86) scale(1,1)"><path fill="none" stroke="#000000" d="M 832 409 L 991 409" stroke-miterlimit="10"></path></g><g transform="translate(-406,-86) scale(1,1)"><path fill="none" stroke="#000000" d="M 832 447 L 991 447" stroke-miterlimit="10"></path></g><g transform="translate(-406,-86) scale(1,1)"><g><path fill="none" stroke="none"></path><text fill="#000000" stroke="none" font-family="Arial" font-size="13px" font-style="normal" font-weight="bold" text-decoration="none" x="872.5" y="403.5">Default vertex</text></g></g><g transform="translate(-406,-86) scale(1,1)"><g><path fill="none" stroke="none"></path><text fill="#000000" stroke="none" font-family="Arial" font-size="13px" font-style="normal" font-weight="normal" text-decoration="none" x="837" y="426.5">+String: name</text></g></g><g transform="translate(-406,-86) scale(1,1)"><g><path fill="none" stroke="none"></path><text fill="#000000" stroke="none" font-family="Arial" font-size="13px" font-style="normal" font-weight="normal" text-decoration="none" x="837" y="441.5">+Boolean: isWorking</text></g></g><g transform="translate(-406,-86) scale(1,1)"><rect fill="#C0C0C0" stroke="none" x="695" y="503" width="144" height="79" opacity="0.2"></rect></g><g transform="translate(-406,-86) scale(1,1)"><rect fill="#ffffff" stroke="none" x="688" y="496" width="144" height="79"></rect></g><g transform="translate(-406,-86) scale(1,1)"><path fill="none" stroke="#000000" d="M 688 496 L 832 496 L 832 575 L 688 575 L 688 496 Z Z" stroke-miterlimit="10"></path></g><g transform="translate(-406,-86) scale(1,1)"><path fill="none" stroke="#000000" d="M 688 521 L 832 521" stroke-miterlimit="10"></path></g><g transform="translate(-406,-86) scale(1,1)"><path fill="none" stroke="#000000" d="M 688 559 L 832 559" stroke-miterlimit="10"></path></g><g transform="translate(-406,-86) scale(1,1)"><g><path fill="none" stroke="none"></path><text fill="#000000" stroke="none" font-family="Arial" font-size="13px" font-style="normal" font-weight="bold" text-decoration="none" x="724" y="515.5">Default edge</text></g></g><g transform="translate(-406,-86) scale(1,1)"><g><path fill="none" stroke="none"></path><text fill="#000000" stroke="none" font-family="Arial" font-size="13px" font-style="normal" font-weight="normal" text-decoration="none" x="693" y="538.5">+String: name</text></g></g><g transform="translate(-406,-86) scale(1,1)"><g><path fill="none" stroke="none"></path><text fill="#000000" stroke="none" font-family="Arial" font-size="13px" font-style="normal" font-weight="normal" text-decoration="none" x="693" y="553.5">+Boolean: isWorking</text></g></g><g transform="translate(-406,-86) scale(1,1)"><path fill="none" stroke="#000000" d="M 911 336 L 911 383" stroke-miterlimit="10"></path></g><g transform="translate(-406,-86) scale(1,1)"><path fill="#FFFFFF" stroke="none" d="M 902.580964487968 362.6746502847517 L 911 383 L 919.419035512032 362.6746502847517"></path></g><g transform="translate(-406,-86) scale(1,1)"><path fill="none" stroke="#000000" d="M 902.580964487968 362.6746502847517 L 911 383 L 919.419035512032 362.6746502847517 L 902.580964487968 362.6746502847517" stroke-miterlimit="10"></path></g><g transform="translate(-406,-86) scale(1,1)"><path fill="none" stroke="#000000" d="M 626 538 L 687 537" stroke-miterlimit="10"></path></g><g transform="translate(-406,-86) scale(1,1)"><path fill="#FFFFFF" stroke="none" d="M 666.8153793357038 545.7510621434468 L 687 537 L 666.539382468382 528.9152532368141"></path></g><g transform="translate(-406,-86) scale(1,1)"><path fill="none" stroke="#000000" d="M 666.8153793357038 545.7510621434468 L 687 537 L 666.539382468382 528.9152532368141 L 666.8153793357038 545.7510621434468" stroke-miterlimit="10"></path></g></g></svg>